<svg width="538" height="82" viewBox="0 0 538 82" fill="none" xmlns="http://www.w3.org/2000/svg">
<path d="M0.0742188 5.99951V2.56201H11.8516V5.99951L8.80469 6.58545V26.9956L11.8516 27.5815V30.9995H0.0742188V27.5815L3.12109 26.9956V6.58545L0.0742188 5.99951Z" fill="white"/>
<path d="M13.8633 27.5815L16.5977 26.9956V13.8901L13.5703 13.3042V9.8667H21.9102L22.1641 12.894C22.8672 11.8133 23.7331 10.9735 24.7617 10.3745C25.7904 9.77555 26.9427 9.47607 28.2188 9.47607C30.3542 9.47607 32.0208 10.1466 33.2188 11.4878C34.4167 12.8289 35.0156 14.9318 35.0156 17.7964V26.9956L37.75 27.5815V30.9995H26.8516V27.5815L29.293 26.9956V17.8159C29.293 16.3966 29.0065 15.394 28.4336 14.8081C27.8607 14.2091 26.9948 13.9097 25.8359 13.9097C25.0807 13.9097 24.4036 14.0659 23.8047 14.3784C23.2057 14.6779 22.7044 15.1076 22.3008 15.6675V26.9956L24.6055 27.5815V30.9995H13.8633V27.5815Z" fill="white"/>
<path d="M70.8359 11.644H66.5586L65.8164 7.73779C65.3216 7.42529 64.599 7.15186 63.6484 6.91748C62.6979 6.68311 61.6888 6.56592 60.6211 6.56592C59.0586 6.56592 57.8477 6.89795 56.9883 7.56201C56.1419 8.21305 55.7188 9.05941 55.7188 10.1011C55.7188 11.0646 56.1615 11.8589 57.0469 12.4839C57.9453 13.0959 59.4883 13.7469 61.6758 14.437C64.8138 15.3094 67.1901 16.4618 68.8047 17.894C70.4323 19.3263 71.2461 21.2078 71.2461 23.5386C71.2461 25.9735 70.2826 27.894 68.3555 29.3003C66.4284 30.7065 63.8893 31.4097 60.7383 31.4097C58.4857 31.4097 56.4479 31.0516 54.625 30.3354C52.8151 29.6193 51.3047 28.6297 50.0938 27.3667V21.4292H54.5078L55.1133 25.4722C55.6862 25.9409 56.4609 26.3315 57.4375 26.644C58.4271 26.9435 59.5273 27.0933 60.7383 27.0933C62.3008 27.0933 63.4857 26.7743 64.293 26.1362C65.1133 25.4982 65.5234 24.6453 65.5234 23.5776C65.5234 22.4839 65.1328 21.605 64.3516 20.9409C63.5833 20.2769 62.2292 19.6519 60.2891 19.0659C56.9167 18.0894 54.3646 16.9305 52.6328 15.5894C50.901 14.2482 50.0352 12.4123 50.0352 10.0815C50.0352 7.77686 51.0117 5.89535 52.9648 4.43701C54.918 2.96566 57.3724 2.21045 60.3281 2.17139C62.5156 2.17139 64.5078 2.50342 66.3047 3.16748C68.1016 3.83154 69.612 4.71696 70.8359 5.82373V11.644Z" fill="white"/>
<path d="M73.6289 20.2378C73.6289 17.0868 74.5078 14.5086 76.2656 12.5034C78.0365 10.4852 80.4779 9.47607 83.5898 9.47607C86.7148 9.47607 89.1562 10.4787 90.9141 12.4839C92.6849 14.4891 93.5703 17.0737 93.5703 20.2378V20.6479C93.5703 23.825 92.6849 26.4162 90.9141 28.4214C89.1562 30.4136 86.7279 31.4097 83.6289 31.4097C80.4909 31.4097 78.0365 30.4136 76.2656 28.4214C74.5078 26.4162 73.6289 23.825 73.6289 20.6479V20.2378ZM79.332 20.6479C79.332 22.575 79.6706 24.1245 80.3477 25.2964C81.0247 26.4552 82.1185 27.0347 83.6289 27.0347C85.1003 27.0347 86.1745 26.4487 86.8516 25.2769C87.5417 24.105 87.8867 22.562 87.8867 20.6479V20.2378C87.8867 18.3628 87.5417 16.8328 86.8516 15.6479C86.1615 14.4631 85.0742 13.8706 83.5898 13.8706C82.1055 13.8706 81.0247 14.4631 80.3477 15.6479C79.6706 16.8328 79.332 18.3628 79.332 20.2378V20.6479Z" fill="white"/>
<path d="M110.836 28.3237C110.159 29.3133 109.319 30.075 108.316 30.6089C107.327 31.1427 106.194 31.4097 104.918 31.4097C102.691 31.4097 100.947 30.7 99.6836 29.2808C98.4206 27.8485 97.7891 25.6284 97.7891 22.6206V13.8901L95.4648 13.3042V9.8667H97.7891H103.492V22.6597C103.492 24.1961 103.746 25.3029 104.254 25.98C104.775 26.644 105.543 26.9761 106.559 26.9761C107.457 26.9761 108.232 26.8328 108.883 26.5464C109.547 26.2469 110.087 25.8237 110.504 25.2769V13.8901L108.004 13.3042V9.8667H110.504H116.207V26.9956L118.766 27.5815V30.9995H111.207L110.836 28.3237Z" fill="white"/>
<path d="M129.43 4.69092V9.8667H133.141V13.8706H129.43V24.6323C129.43 25.4526 129.599 26.0386 129.938 26.3901C130.276 26.7417 130.732 26.9175 131.305 26.9175C131.695 26.9175 132.034 26.9045 132.32 26.8784C132.62 26.8394 132.952 26.7808 133.316 26.7026L133.805 30.8237C133.167 31.019 132.535 31.1623 131.91 31.2534C131.285 31.3576 130.608 31.4097 129.879 31.4097C127.913 31.4097 126.396 30.8693 125.328 29.7886C124.273 28.7078 123.746 26.9956 123.746 24.6519V13.8706H120.641V9.8667H123.746V4.69092H129.43Z" fill="white"/>
<path d="M135.621 27.5815L138.375 26.9956V4.5542L135.328 3.96826V0.530762H144.059V12.562C144.723 11.5854 145.536 10.8302 146.5 10.2964C147.464 9.74951 148.531 9.47607 149.703 9.47607C151.917 9.47607 153.648 10.2118 154.898 11.6831C156.161 13.1414 156.793 15.4006 156.793 18.4604V26.9956L159.527 27.5815V30.9995H148.629V27.5815L151.09 26.9956V18.4214C151.09 16.7808 150.797 15.6219 150.211 14.9448C149.638 14.2547 148.779 13.9097 147.633 13.9097C146.839 13.9097 146.142 14.0529 145.543 14.3394C144.957 14.6258 144.462 15.0295 144.059 15.5503V26.9956L146.52 27.5815V30.9995H135.621V27.5815Z" fill="white"/>
<path d="M171.285 31.4097C168.238 31.4097 165.803 30.4331 163.98 28.48C162.158 26.5269 161.246 24.0464 161.246 21.0386V20.2573C161.246 17.1193 162.105 14.5347 163.824 12.5034C165.556 10.4722 167.874 9.46305 170.777 9.47607C173.629 9.47607 175.842 10.3354 177.418 12.0542C178.993 13.7729 179.781 16.0972 179.781 19.0269V22.1323H167.164L167.125 22.2495C167.229 23.6427 167.691 24.7886 168.512 25.687C169.345 26.5854 170.471 27.0347 171.891 27.0347C173.154 27.0347 174.202 26.911 175.035 26.6636C175.868 26.4032 176.78 25.9995 177.77 25.4526L179.312 28.9683C178.44 29.6584 177.307 30.2378 175.914 30.7065C174.534 31.1753 172.991 31.4097 171.285 31.4097ZM170.777 13.8706C169.723 13.8706 168.889 14.2743 168.277 15.0815C167.665 15.8888 167.288 16.95 167.145 18.2651L167.203 18.3628H174.195V17.855C174.195 16.644 173.909 15.6805 173.336 14.9644C172.776 14.2352 171.923 13.8706 170.777 13.8706Z" fill="white"/>
<path d="M195.953 30.9995C195.797 30.6479 195.66 30.2899 195.543 29.9253C195.426 29.5477 195.335 29.1701 195.27 28.7925C194.592 29.5737 193.766 30.2052 192.789 30.687C191.826 31.1688 190.719 31.4097 189.469 31.4097C187.398 31.4097 185.751 30.8498 184.527 29.73C183.316 28.5972 182.711 27.0607 182.711 25.1206C182.711 23.1414 183.505 21.6115 185.094 20.5308C186.682 19.45 189.013 18.9097 192.086 18.9097H194.996V16.8394C194.996 15.8237 194.703 15.036 194.117 14.4761C193.531 13.9162 192.665 13.6362 191.52 13.6362C190.868 13.6362 190.289 13.7144 189.781 13.8706C189.273 14.0138 188.863 14.1896 188.551 14.3979L188.18 16.6636H183.883L183.902 11.9761C184.944 11.2729 186.135 10.6805 187.477 10.1987C188.831 9.71696 190.302 9.47607 191.891 9.47607C194.508 9.47607 196.63 10.1206 198.258 11.4097C199.898 12.6857 200.719 14.5086 200.719 16.8784V25.6089C200.719 25.9344 200.719 26.2404 200.719 26.5269C200.732 26.8133 200.758 27.0868 200.797 27.3472L202.535 27.5815V30.9995H195.953ZM191.012 27.1909C191.871 27.1909 192.652 27.0086 193.355 26.644C194.059 26.2664 194.605 25.7977 194.996 25.2378V22.0151H192.086C190.875 22.0151 189.957 22.3016 189.332 22.8745C188.707 23.4344 188.395 24.1115 188.395 24.9058C188.395 25.6219 188.622 26.1818 189.078 26.5854C189.547 26.9891 190.191 27.1909 191.012 27.1909Z" fill="white"/>
<path d="M221.734 17.1323H217.906L217.301 14.4956C216.91 14.1831 216.415 13.9227 215.816 13.7144C215.23 13.506 214.579 13.4019 213.863 13.4019C212.861 13.4019 212.066 13.6297 211.48 14.0854C210.895 14.5282 210.602 15.0881 210.602 15.7651C210.602 16.4032 210.882 16.937 211.441 17.3667C212.001 17.7834 213.121 18.1545 214.801 18.48C217.418 19.0008 219.358 19.769 220.621 20.7847C221.884 21.7873 222.516 23.174 222.516 24.9448C222.516 26.8459 221.695 28.4019 220.055 29.6128C218.427 30.8107 216.279 31.4097 213.609 31.4097C211.982 31.4097 210.484 31.1753 209.117 30.7065C207.763 30.2248 206.559 29.5412 205.504 28.6558L205.445 23.9097H209.43L210.211 26.6636C210.549 26.95 211.012 27.1649 211.598 27.3081C212.184 27.4383 212.796 27.5034 213.434 27.5034C214.592 27.5034 215.471 27.2951 216.07 26.8784C216.682 26.4618 216.988 25.8953 216.988 25.1792C216.988 24.5542 216.682 24.0138 216.07 23.5581C215.458 23.1024 214.332 22.6987 212.691 22.3472C210.204 21.8394 208.323 21.0907 207.047 20.1011C205.784 19.0985 205.152 17.7378 205.152 16.019C205.152 14.2482 205.882 12.7248 207.34 11.4487C208.798 10.1597 210.875 9.51514 213.57 9.51514C215.211 9.51514 216.76 9.73649 218.219 10.1792C219.69 10.6219 220.842 11.1883 221.676 11.8784L221.734 17.1323Z" fill="white"/>
<path d="M233.492 4.69092V9.8667H237.203V13.8706H233.492V24.6323C233.492 25.4526 233.661 26.0386 234 26.3901C234.339 26.7417 234.794 26.9175 235.367 26.9175C235.758 26.9175 236.096 26.9045 236.383 26.8784C236.682 26.8394 237.014 26.7808 237.379 26.7026L237.867 30.8237C237.229 31.019 236.598 31.1623 235.973 31.2534C235.348 31.3576 234.671 31.4097 233.941 31.4097C231.975 31.4097 230.458 30.8693 229.391 29.7886C228.336 28.7078 227.809 26.9956 227.809 24.6519V13.8706H224.703V9.8667H227.809V4.69092H233.492Z" fill="white"/>
<path d="M268.023 18.4995H258.395V26.6245H267.574L267.828 23.2261H272.164V30.9995H249.664V27.5815L252.691 26.9956V6.58545L249.664 5.99951V2.56201H252.691H272.125V10.355H267.75L267.496 6.95654H258.395V14.105H268.023V18.4995Z" fill="white"/>
<path d="M275.035 27.5815L277.77 26.9956V13.8901L274.742 13.3042V9.8667H283.082L283.336 12.894C284.039 11.8133 284.905 10.9735 285.934 10.3745C286.962 9.77555 288.115 9.47607 289.391 9.47607C291.526 9.47607 293.193 10.1466 294.391 11.4878C295.589 12.8289 296.188 14.9318 296.188 17.7964V26.9956L298.922 27.5815V30.9995H288.023V27.5815L290.465 26.9956V17.8159C290.465 16.3966 290.178 15.394 289.605 14.8081C289.033 14.2091 288.167 13.9097 287.008 13.9097C286.253 13.9097 285.576 14.0659 284.977 14.3784C284.378 14.6779 283.876 15.1076 283.473 15.6675V26.9956L285.777 27.5815V30.9995H275.035V27.5815Z" fill="white"/>
<path d="M300.895 20.6089C300.895 17.2756 301.617 14.5868 303.062 12.5425C304.521 10.4982 306.559 9.47607 309.176 9.47607C310.361 9.47607 311.402 9.743 312.301 10.2769C313.199 10.7977 313.967 11.5464 314.605 12.5229L315.016 9.8667H319.977V30.3745C319.977 33.161 319.098 35.381 317.34 37.0347C315.595 38.7013 313.193 39.5347 310.133 39.5347C309.065 39.5347 307.932 39.3849 306.734 39.0854C305.536 38.799 304.43 38.4019 303.414 37.894L304.469 33.8901C305.38 34.2808 306.292 34.5868 307.203 34.8081C308.115 35.0425 309.078 35.1597 310.094 35.1597C311.487 35.1597 312.529 34.7365 313.219 33.8901C313.909 33.0438 314.254 31.8654 314.254 30.355V28.9683C313.629 29.7625 312.893 30.368 312.047 30.7847C311.201 31.2013 310.23 31.4097 309.137 31.4097C306.546 31.4097 304.521 30.4591 303.062 28.5581C301.617 26.644 300.895 24.131 300.895 21.019V20.6089ZM306.598 21.019C306.598 22.868 306.91 24.3263 307.535 25.394C308.16 26.4487 309.176 26.9761 310.582 26.9761C311.454 26.9761 312.19 26.8198 312.789 26.5073C313.401 26.1818 313.889 25.7131 314.254 25.1011V15.9214C313.889 15.2834 313.401 14.7886 312.789 14.437C312.19 14.0854 311.467 13.9097 310.621 13.9097C309.228 13.9097 308.206 14.5282 307.555 15.7651C306.917 17.0021 306.598 18.6167 306.598 20.6089V21.019Z" fill="white"/>
<path d="M322.789 3.96826V0.530762H331.539V26.9956L334.293 27.5815V30.9995H323.082V27.5815L325.836 26.9956V4.5542L322.789 3.96826Z" fill="white"/>
<path d="M349.625 30.9995C349.469 30.6479 349.332 30.2899 349.215 29.9253C349.098 29.5477 349.007 29.1701 348.941 28.7925C348.264 29.5737 347.438 30.2052 346.461 30.687C345.497 31.1688 344.391 31.4097 343.141 31.4097C341.07 31.4097 339.423 30.8498 338.199 29.73C336.988 28.5972 336.383 27.0607 336.383 25.1206C336.383 23.1414 337.177 21.6115 338.766 20.5308C340.354 19.45 342.685 18.9097 345.758 18.9097H348.668V16.8394C348.668 15.8237 348.375 15.036 347.789 14.4761C347.203 13.9162 346.337 13.6362 345.191 13.6362C344.54 13.6362 343.961 13.7144 343.453 13.8706C342.945 14.0138 342.535 14.1896 342.223 14.3979L341.852 16.6636H337.555L337.574 11.9761C338.616 11.2729 339.807 10.6805 341.148 10.1987C342.503 9.71696 343.974 9.47607 345.562 9.47607C348.18 9.47607 350.302 10.1206 351.93 11.4097C353.57 12.6857 354.391 14.5086 354.391 16.8784V25.6089C354.391 25.9344 354.391 26.2404 354.391 26.5269C354.404 26.8133 354.43 27.0868 354.469 27.3472L356.207 27.5815V30.9995H349.625ZM344.684 27.1909C345.543 27.1909 346.324 27.0086 347.027 26.644C347.73 26.2664 348.277 25.7977 348.668 25.2378V22.0151H345.758C344.547 22.0151 343.629 22.3016 343.004 22.8745C342.379 23.4344 342.066 24.1115 342.066 24.9058C342.066 25.6219 342.294 26.1818 342.75 26.5854C343.219 26.9891 343.863 27.1909 344.684 27.1909Z" fill="white"/>
<path d="M357.848 27.5815L360.582 26.9956V13.8901L357.555 13.3042V9.8667H365.895L366.148 12.894C366.852 11.8133 367.717 10.9735 368.746 10.3745C369.775 9.77555 370.927 9.47607 372.203 9.47607C374.339 9.47607 376.005 10.1466 377.203 11.4878C378.401 12.8289 379 14.9318 379 17.7964V26.9956L381.734 27.5815V30.9995H370.836V27.5815L373.277 26.9956V17.8159C373.277 16.3966 372.991 15.394 372.418 14.8081C371.845 14.2091 370.979 13.9097 369.82 13.9097C369.065 13.9097 368.388 14.0659 367.789 14.3784C367.19 14.6779 366.689 15.1076 366.285 15.6675V26.9956L368.59 27.5815V30.9995H357.848V27.5815Z" fill="white"/>
<path d="M397.105 28.4214C396.441 29.3979 395.654 30.1401 394.742 30.6479C393.844 31.1558 392.815 31.4097 391.656 31.4097C389.052 31.4097 387.027 30.4591 385.582 28.5581C384.15 26.6571 383.434 24.144 383.434 21.019V20.6089C383.434 17.2756 384.156 14.5868 385.602 12.5425C387.047 10.4982 389.078 9.47607 391.695 9.47607C392.75 9.47607 393.701 9.71045 394.547 10.1792C395.393 10.6349 396.135 11.286 396.773 12.1323V4.5542L393.727 3.96826V0.530762H396.773H402.477V26.9956L405.211 27.5815V30.9995H397.535L397.105 28.4214ZM389.137 21.019C389.137 22.868 389.443 24.3263 390.055 25.394C390.68 26.4487 391.695 26.9761 393.102 26.9761C393.935 26.9761 394.658 26.8068 395.27 26.4683C395.882 26.1297 396.383 25.6414 396.773 25.0034V16.0386C396.383 15.3615 395.882 14.8407 395.27 14.4761C394.671 14.0985 393.961 13.9097 393.141 13.9097C391.747 13.9097 390.732 14.5282 390.094 15.7651C389.456 17.0021 389.137 18.6167 389.137 20.6089V21.019Z" fill="white"/>
<path d="M413.609 30.2378C413.609 31.5659 413.232 32.9722 412.477 34.4565C411.734 35.9409 410.823 37.1584 409.742 38.1089L406.93 36.5854C407.438 35.674 407.828 34.73 408.102 33.7534C408.375 32.7899 408.512 31.7091 408.512 30.5112V26.2534H413.629L413.609 30.2378Z" fill="white"/>
<path d="M463.375 5.99951L461.031 6.29248L455.27 30.9995H449.977L444.762 12.23H444.645L439.43 30.9995H434.137L428.336 6.29248L426.012 5.99951V2.56201H436.48V5.99951L433.883 6.44873L437.145 22.0347L437.262 22.0542L442.594 2.56201H446.793L452.164 22.0542L452.281 22.0347L455.523 6.44873L452.926 5.99951V2.56201H463.375V5.99951Z" fill="white"/>
<path d="M464.879 27.5815L467.633 26.9956V4.5542L464.586 3.96826V0.530762H473.316V12.562C473.98 11.5854 474.794 10.8302 475.758 10.2964C476.721 9.74951 477.789 9.47607 478.961 9.47607C481.174 9.47607 482.906 10.2118 484.156 11.6831C485.419 13.1414 486.051 15.4006 486.051 18.4604V26.9956L488.785 27.5815V30.9995H477.887V27.5815L480.348 26.9956V18.4214C480.348 16.7808 480.055 15.6219 479.469 14.9448C478.896 14.2547 478.036 13.9097 476.891 13.9097C476.096 13.9097 475.4 14.0529 474.801 14.3394C474.215 14.6258 473.72 15.0295 473.316 15.5503V26.9956L475.777 27.5815V30.9995H464.879V27.5815Z" fill="white"/>
<path d="M490.445 27.5815L493.199 26.9956V13.8901L490.152 13.3042V9.8667H498.902V26.9956L501.637 27.5815V30.9995H490.445V27.5815ZM498.902 4.80811H493.199V0.530762H498.902V4.80811Z" fill="white"/>
<path d="M511.93 4.69092V9.8667H515.641V13.8706H511.93V24.6323C511.93 25.4526 512.099 26.0386 512.438 26.3901C512.776 26.7417 513.232 26.9175 513.805 26.9175C514.195 26.9175 514.534 26.9045 514.82 26.8784C515.12 26.8394 515.452 26.7808 515.816 26.7026L516.305 30.8237C515.667 31.019 515.035 31.1623 514.41 31.2534C513.785 31.3576 513.108 31.4097 512.379 31.4097C510.413 31.4097 508.896 30.8693 507.828 29.7886C506.773 28.7078 506.246 26.9956 506.246 24.6519V13.8706H503.141V9.8667H506.246V4.69092H511.93Z" fill="white"/>
<path d="M528.551 31.4097C525.504 31.4097 523.069 30.4331 521.246 28.48C519.423 26.5269 518.512 24.0464 518.512 21.0386V20.2573C518.512 17.1193 519.371 14.5347 521.09 12.5034C522.822 10.4722 525.139 9.46305 528.043 9.47607C530.895 9.47607 533.108 10.3354 534.684 12.0542C536.259 13.7729 537.047 16.0972 537.047 19.0269V22.1323H524.43L524.391 22.2495C524.495 23.6427 524.957 24.7886 525.777 25.687C526.611 26.5854 527.737 27.0347 529.156 27.0347C530.419 27.0347 531.467 26.911 532.301 26.6636C533.134 26.4032 534.046 25.9995 535.035 25.4526L536.578 28.9683C535.706 29.6584 534.573 30.2378 533.18 30.7065C531.799 31.1753 530.257 31.4097 528.551 31.4097ZM528.043 13.8706C526.988 13.8706 526.155 14.2743 525.543 15.0815C524.931 15.8888 524.553 16.95 524.41 18.2651L524.469 18.3628H531.461V17.855C531.461 16.644 531.174 15.6805 530.602 14.9644C530.042 14.2352 529.189 13.8706 528.043 13.8706Z" fill="white"/>
<path d="M23.3945 62.1519H19.1562L18.5703 58.3628C18.0104 57.8029 17.3008 57.3602 16.4414 57.0347C15.5951 56.7091 14.5924 56.5464 13.4336 56.5464C10.9596 56.5464 9.05208 57.4448 7.71094 59.2417C6.38281 61.0386 5.71875 63.3823 5.71875 66.2729V67.269C5.71875 70.1597 6.38281 72.5099 7.71094 74.3198C9.03906 76.1297 10.9141 77.0347 13.3359 77.0347C14.4557 77.0347 15.4779 76.8719 16.4023 76.5464C17.3398 76.2209 18.0625 75.7782 18.5703 75.2183L19.1562 71.4292H23.3945V77.0542C22.2487 78.3823 20.7839 79.4435 19 80.2378C17.2292 81.019 15.2435 81.4097 13.043 81.4097C9.22786 81.4097 6.10286 80.0881 3.66797 77.4448C1.23307 74.8016 0.015625 71.4097 0.015625 67.269V66.312C0.015625 62.1844 1.22656 58.7925 3.64844 56.1362C6.07031 53.48 9.20182 52.1519 13.043 52.1519C15.2435 52.1519 17.2292 52.5555 19 53.3628C20.7708 54.1571 22.2357 55.2118 23.3945 56.5269V62.1519Z" fill="white"/>
<path d="M25.5625 53.9683V50.5308H34.3125V76.9956L37.0664 77.5815V80.9995H25.8555V77.5815L28.6094 76.9956V54.5542L25.5625 53.9683Z" fill="white"/>
<path d="M38.7656 77.5815L41.5195 76.9956V63.8901L38.4727 63.3042V59.8667H47.2227V76.9956L49.957 77.5815V80.9995H38.7656V77.5815ZM47.2227 54.8081H41.5195V50.5308H47.2227V54.8081Z" fill="white"/>
<path d="M52.1445 77.5815L54.8984 76.9956V63.8706H51.7539V59.8667H54.8984V57.5229C54.8984 55.1532 55.582 53.3302 56.9492 52.0542C58.3164 50.7651 60.237 50.1206 62.7109 50.1206C63.1927 50.1206 63.681 50.1597 64.1758 50.2378C64.6836 50.3029 65.237 50.4006 65.8359 50.5308L65.3477 54.769C65.0352 54.717 64.7292 54.6714 64.4297 54.6323C64.1432 54.5933 63.8047 54.5737 63.4141 54.5737C62.4896 54.5737 61.7865 54.8276 61.3047 55.3354C60.8359 55.8433 60.6016 56.5724 60.6016 57.5229V59.8667H64.8008V63.8706H60.6016V76.9956L63.3555 77.5815V80.9995H52.1445V77.5815Z" fill="white"/>
<path d="M67.0273 77.5815L69.7812 76.9956V63.8706H66.6367V59.8667H69.7812V57.5229C69.7812 55.1532 70.4648 53.3302 71.832 52.0542C73.1992 50.7651 75.1198 50.1206 77.5938 50.1206C78.0755 50.1206 78.5638 50.1597 79.0586 50.2378C79.5664 50.3029 80.1198 50.4006 80.7188 50.5308L80.2305 54.769C79.918 54.717 79.612 54.6714 79.3125 54.6323C79.026 54.5933 78.6875 54.5737 78.2969 54.5737C77.3724 54.5737 76.6693 54.8276 76.1875 55.3354C75.7188 55.8433 75.4844 56.5724 75.4844 57.5229V59.8667H79.6836V63.8706H75.4844V76.9956L78.2383 77.5815V80.9995H67.0273V77.5815Z" fill="white"/>
<path d="M98.8438 67.1323H95.0156L94.4102 64.4956C94.0195 64.1831 93.5247 63.9227 92.9258 63.7144C92.3398 63.506 91.6888 63.4019 90.9727 63.4019C89.9701 63.4019 89.1758 63.6297 88.5898 64.0854C88.0039 64.5282 87.7109 65.0881 87.7109 65.7651C87.7109 66.4032 87.9909 66.937 88.5508 67.3667C89.1107 67.7834 90.2305 68.1545 91.9102 68.48C94.5273 69.0008 96.4674 69.769 97.7305 70.7847C98.9935 71.7873 99.625 73.174 99.625 74.9448C99.625 76.8459 98.8047 78.4019 97.1641 79.6128C95.5365 80.8107 93.388 81.4097 90.7188 81.4097C89.0911 81.4097 87.5938 81.1753 86.2266 80.7065C84.8724 80.2248 83.668 79.5412 82.6133 78.6558L82.5547 73.9097H86.5391L87.3203 76.6636C87.6589 76.95 88.1211 77.1649 88.707 77.3081C89.293 77.4383 89.9049 77.5034 90.543 77.5034C91.7018 77.5034 92.5807 77.2951 93.1797 76.8784C93.7917 76.4618 94.0977 75.8953 94.0977 75.1792C94.0977 74.5542 93.7917 74.0138 93.1797 73.5581C92.5677 73.1024 91.4414 72.6987 89.8008 72.3472C87.3138 71.8394 85.4323 71.0907 84.1562 70.1011C82.8932 69.0985 82.2617 67.7378 82.2617 66.019C82.2617 64.2482 82.9909 62.7248 84.4492 61.4487C85.9076 60.1597 87.9844 59.5151 90.6797 59.5151C92.3203 59.5151 93.8698 59.7365 95.3281 60.1792C96.7995 60.6219 97.9518 61.1883 98.7852 61.8784L98.8438 67.1323Z" fill="white"/>
<path d="M125.445 80.9995C125.289 80.6479 125.152 80.2899 125.035 79.9253C124.918 79.5477 124.827 79.1701 124.762 78.7925C124.085 79.5737 123.258 80.2052 122.281 80.687C121.318 81.1688 120.211 81.4097 118.961 81.4097C116.891 81.4097 115.243 80.8498 114.02 79.73C112.809 78.5972 112.203 77.0607 112.203 75.1206C112.203 73.1414 112.997 71.6115 114.586 70.5308C116.174 69.45 118.505 68.9097 121.578 68.9097H124.488V66.8394C124.488 65.8237 124.195 65.036 123.609 64.4761C123.023 63.9162 122.158 63.6362 121.012 63.6362C120.361 63.6362 119.781 63.7144 119.273 63.8706C118.766 64.0138 118.355 64.1896 118.043 64.3979L117.672 66.6636H113.375L113.395 61.9761C114.436 61.2729 115.628 60.6805 116.969 60.1987C118.323 59.717 119.794 59.4761 121.383 59.4761C124 59.4761 126.122 60.1206 127.75 61.4097C129.391 62.6857 130.211 64.5086 130.211 66.8784V75.6089C130.211 75.9344 130.211 76.2404 130.211 76.5269C130.224 76.8133 130.25 77.0868 130.289 77.3472L132.027 77.5815V80.9995H125.445ZM120.504 77.1909C121.363 77.1909 122.145 77.0086 122.848 76.644C123.551 76.2664 124.098 75.7977 124.488 75.2378V72.0151H121.578C120.367 72.0151 119.449 72.3016 118.824 72.8745C118.199 73.4344 117.887 74.1115 117.887 74.9058C117.887 75.6219 118.115 76.1818 118.57 76.5854C119.039 76.9891 119.684 77.1909 120.504 77.1909Z" fill="white"/>
<path d="M133.668 77.5815L136.402 76.9956V63.8901L133.375 63.3042V59.8667H141.715L141.969 62.894C142.672 61.8133 143.538 60.9735 144.566 60.3745C145.595 59.7756 146.747 59.4761 148.023 59.4761C150.159 59.4761 151.826 60.1466 153.023 61.4878C154.221 62.8289 154.82 64.9318 154.82 67.7964V76.9956L157.555 77.5815V80.9995H146.656V77.5815L149.098 76.9956V67.8159C149.098 66.3966 148.811 65.394 148.238 64.8081C147.665 64.2091 146.799 63.9097 145.641 63.9097C144.885 63.9097 144.208 64.0659 143.609 64.3784C143.01 64.6779 142.509 65.1076 142.105 65.6675V76.9956L144.41 77.5815V80.9995H133.668V77.5815Z" fill="white"/>
<path d="M172.926 78.4214C172.262 79.3979 171.474 80.1401 170.562 80.6479C169.664 81.1558 168.635 81.4097 167.477 81.4097C164.872 81.4097 162.848 80.4591 161.402 78.5581C159.97 76.6571 159.254 74.144 159.254 71.019V70.6089C159.254 67.2756 159.977 64.5868 161.422 62.5425C162.867 60.4982 164.898 59.4761 167.516 59.4761C168.57 59.4761 169.521 59.7104 170.367 60.1792C171.214 60.6349 171.956 61.286 172.594 62.1323V54.5542L169.547 53.9683V50.5308H172.594H178.297V76.9956L181.031 77.5815V80.9995H173.355L172.926 78.4214ZM164.957 71.019C164.957 72.868 165.263 74.3263 165.875 75.394C166.5 76.4487 167.516 76.9761 168.922 76.9761C169.755 76.9761 170.478 76.8068 171.09 76.4683C171.702 76.1297 172.203 75.6414 172.594 75.0034V66.0386C172.203 65.3615 171.702 64.8407 171.09 64.4761C170.491 64.0985 169.781 63.9097 168.961 63.9097C167.568 63.9097 166.552 64.5282 165.914 65.7651C165.276 67.0021 164.957 68.6167 164.957 70.6089V71.019Z" fill="white"/>
<path d="M192.516 77.5815L195.543 76.9956V56.5854L192.516 55.9995V52.562H215.152V60.355H210.777L210.523 56.9565H201.246V64.7886H211.207V69.1831H201.246V76.9956L204.293 77.5815V80.9995H192.516V77.5815Z" fill="white"/>
<path d="M217.203 77.5815L219.957 76.9956V63.8901L216.91 63.3042V59.8667H225.66V76.9956L228.395 77.5815V80.9995H217.203V77.5815ZM225.66 54.8081H219.957V50.5308H225.66V54.8081Z" fill="white"/>
<path d="M247.516 67.1323H243.688L243.082 64.4956C242.691 64.1831 242.197 63.9227 241.598 63.7144C241.012 63.506 240.361 63.4019 239.645 63.4019C238.642 63.4019 237.848 63.6297 237.262 64.0854C236.676 64.5282 236.383 65.0881 236.383 65.7651C236.383 66.4032 236.663 66.937 237.223 67.3667C237.783 67.7834 238.902 68.1545 240.582 68.48C243.199 69.0008 245.139 69.769 246.402 70.7847C247.665 71.7873 248.297 73.174 248.297 74.9448C248.297 76.8459 247.477 78.4019 245.836 79.6128C244.208 80.8107 242.06 81.4097 239.391 81.4097C237.763 81.4097 236.266 81.1753 234.898 80.7065C233.544 80.2248 232.34 79.5412 231.285 78.6558L231.227 73.9097H235.211L235.992 76.6636C236.331 76.95 236.793 77.1649 237.379 77.3081C237.965 77.4383 238.577 77.5034 239.215 77.5034C240.374 77.5034 241.253 77.2951 241.852 76.8784C242.464 76.4618 242.77 75.8953 242.77 75.1792C242.77 74.5542 242.464 74.0138 241.852 73.5581C241.24 73.1024 240.113 72.6987 238.473 72.3472C235.986 71.8394 234.104 71.0907 232.828 70.1011C231.565 69.0985 230.934 67.7378 230.934 66.019C230.934 64.2482 231.663 62.7248 233.121 61.4487C234.579 60.1597 236.656 59.5151 239.352 59.5151C240.992 59.5151 242.542 59.7365 244 60.1792C245.471 60.6219 246.624 61.1883 247.457 61.8784L247.516 67.1323Z" fill="white"/>
<path d="M250.543 77.5815L253.297 76.9956V54.5542L250.25 53.9683V50.5308H258.98V62.562C259.645 61.5854 260.458 60.8302 261.422 60.2964C262.385 59.7495 263.453 59.4761 264.625 59.4761C266.839 59.4761 268.57 60.2118 269.82 61.6831C271.083 63.1414 271.715 65.4006 271.715 68.4604V76.9956L274.449 77.5815V80.9995H263.551V77.5815L266.012 76.9956V68.4214C266.012 66.7808 265.719 65.6219 265.133 64.9448C264.56 64.2547 263.701 63.9097 262.555 63.9097C261.76 63.9097 261.064 64.0529 260.465 64.3394C259.879 64.6258 259.384 65.0295 258.98 65.5503V76.9956L261.441 77.5815V80.9995H250.543V77.5815Z" fill="white"/>
</svg>
